G75*
%MOIN*%
%OFA0B0*%
%FSLAX24Y24*%
%IPPOS*%
%LPD*%
%AMOC8*
5,1,8,0,0,1.08239X$1,22.5*
%
%ADD10C,0.0750*%
%ADD11C,0.1050*%
%ADD12R,0.0354X0.0276*%
%ADD13R,0.0354X0.0138*%
%ADD14C,0.0594*%
%ADD15R,0.0394X0.0157*%
%ADD16R,0.0276X0.0354*%
%ADD17R,0.0630X0.0709*%
%ADD18R,0.0512X0.0591*%
%ADD19C,0.0138*%
%ADD20C,0.0396*%
%ADD21C,0.0157*%
%ADD22C,0.0102*%
D10*
X004521Y006224D03*
X014993Y007001D03*
X014993Y002788D03*
D11*
X013989Y001785D03*
X015997Y001785D03*
X015997Y003792D03*
X013989Y003792D03*
X013989Y005997D03*
X015997Y005997D03*
X015997Y008005D03*
X013989Y008005D03*
X005525Y007227D03*
X003517Y007227D03*
X003517Y005220D03*
X005525Y005220D03*
D12*
X006292Y005712D03*
X006292Y006224D03*
X012198Y006233D03*
X012670Y006233D03*
X013123Y005790D03*
X012670Y005722D03*
X012198Y005722D03*
X013123Y005279D03*
X013123Y004511D03*
X013123Y003999D03*
X012269Y003999D03*
X012269Y003487D03*
D13*
X011743Y003999D03*
X011743Y004255D03*
X011743Y004511D03*
X011743Y004767D03*
X011743Y005023D03*
X011743Y005279D03*
X011743Y005535D03*
X011743Y005790D03*
X009479Y005790D03*
X009479Y005535D03*
X009479Y005279D03*
X009479Y005023D03*
X009479Y004767D03*
X009479Y004511D03*
X009479Y004255D03*
X009479Y003999D03*
D14*
X010548Y001904D02*
X010548Y001311D01*
X011548Y001311D02*
X011548Y001904D01*
X001900Y005224D02*
X001307Y005224D01*
X001307Y006224D02*
X001900Y006224D01*
X001900Y007224D02*
X001307Y007224D01*
D15*
X006976Y006480D03*
X006976Y006224D03*
X006976Y005968D03*
X006976Y005712D03*
X008758Y005712D03*
X008758Y005968D03*
X008758Y006224D03*
X008758Y006480D03*
D16*
X010584Y006099D03*
X011096Y006099D03*
D17*
X011548Y003379D03*
X010446Y003379D03*
D18*
X007643Y003300D03*
X006974Y003300D03*
X006974Y004127D03*
X007643Y004127D03*
X007643Y004954D03*
X006974Y004954D03*
X006974Y007237D03*
X007643Y007237D03*
X007643Y008064D03*
X006974Y008064D03*
X006974Y008891D03*
X007643Y008891D03*
D19*
X000308Y009796D02*
X000308Y000308D01*
X016765Y000308D01*
X016765Y009796D01*
X000308Y009796D01*
X000308Y009770D02*
X016765Y009770D01*
X016765Y009634D02*
X000308Y009634D01*
X000308Y009498D02*
X016765Y009498D01*
X016765Y009361D02*
X007325Y009361D01*
X007339Y009348D02*
X007281Y009406D01*
X000934Y009406D01*
X000817Y009289D01*
X000817Y006839D01*
X000934Y006722D01*
X002517Y006722D01*
X002634Y006839D01*
X002634Y007903D01*
X003359Y007903D01*
X003293Y007886D01*
X003209Y007851D01*
X003131Y007806D01*
X003058Y007750D01*
X002994Y007686D01*
X002939Y007614D01*
X002893Y007535D01*
X002858Y007451D01*
X002835Y007363D01*
X002826Y007296D01*
X003448Y007296D01*
X003448Y007159D01*
X002826Y007159D01*
X002835Y007092D01*
X002858Y007004D01*
X002893Y006920D01*
X002939Y006841D01*
X002994Y006769D01*
X003058Y006705D01*
X003131Y006649D01*
X003209Y006604D01*
X003293Y006569D01*
X003381Y006545D01*
X003448Y006537D01*
X003448Y007158D01*
X003586Y007158D01*
X003586Y006537D01*
X003653Y006545D01*
X003740Y006569D01*
X003824Y006604D01*
X003903Y006649D01*
X003975Y006705D01*
X004040Y006769D01*
X004095Y006841D01*
X004141Y006920D01*
X004175Y007004D01*
X004199Y007092D01*
X004208Y007159D01*
X003586Y007159D01*
X003586Y007296D01*
X004208Y007296D01*
X004199Y007363D01*
X004175Y007451D01*
X004141Y007535D01*
X004095Y007614D01*
X004040Y007686D01*
X003975Y007750D01*
X003903Y007806D01*
X003824Y007851D01*
X003740Y007886D01*
X003675Y007903D01*
X005366Y007903D01*
X005301Y007886D01*
X005217Y007851D01*
X005138Y007806D01*
X005066Y007750D01*
X005002Y007686D01*
X004946Y007614D01*
X004901Y007535D01*
X004866Y007451D01*
X004843Y007363D01*
X004834Y007296D01*
X005456Y007296D01*
X005456Y007159D01*
X004834Y007159D01*
X004843Y007092D01*
X004866Y007004D01*
X004901Y006920D01*
X004946Y006841D01*
X005002Y006769D01*
X005066Y006705D01*
X005138Y006649D01*
X005217Y006604D01*
X005301Y006569D01*
X005389Y006545D01*
X005456Y006537D01*
X005456Y007158D01*
X005594Y007158D01*
X005594Y007159D02*
X005594Y007296D01*
X006215Y007296D01*
X006207Y007363D01*
X006183Y007451D01*
X006148Y007535D01*
X006103Y007614D01*
X006047Y007686D01*
X005983Y007750D01*
X005911Y007806D01*
X005832Y007851D01*
X005748Y007886D01*
X005683Y007903D01*
X006486Y007903D01*
X006486Y006839D01*
X006604Y006721D01*
X006604Y006452D01*
X006590Y006452D01*
X006531Y006510D01*
X006054Y006510D01*
X005995Y006451D01*
X004994Y006451D01*
X004965Y006520D01*
X004818Y006668D01*
X004625Y006747D01*
X004417Y006747D01*
X004224Y006668D01*
X004077Y006520D01*
X003997Y006328D01*
X003997Y006119D01*
X004077Y005927D01*
X004224Y005779D01*
X004417Y005700D01*
X004625Y005700D01*
X004818Y005779D01*
X004965Y005927D01*
X004994Y005996D01*
X005995Y005996D01*
X006009Y005982D01*
X005980Y005953D01*
X005958Y005915D01*
X005946Y005872D01*
X005946Y005771D01*
X005911Y005798D01*
X005832Y005843D01*
X005748Y005878D01*
X005660Y005902D01*
X005594Y005910D01*
X005594Y005289D01*
X005456Y005289D01*
X005456Y005910D01*
X005389Y005902D01*
X005301Y005878D01*
X005217Y005843D01*
X005138Y005798D01*
X005066Y005742D01*
X005002Y005678D01*
X004946Y005606D01*
X004901Y005527D01*
X004866Y005443D01*
X004843Y005355D01*
X004834Y005289D01*
X005456Y005289D01*
X005456Y005151D01*
X004834Y005151D01*
X004843Y005084D01*
X004866Y004996D01*
X004901Y004912D01*
X004946Y004833D01*
X005002Y004761D01*
X005066Y004697D01*
X005138Y004641D01*
X005217Y004596D01*
X005296Y004563D01*
X003746Y004563D01*
X003824Y004596D01*
X003903Y004641D01*
X003975Y004697D01*
X004040Y004761D01*
X004095Y004833D01*
X004141Y004912D01*
X004175Y004996D01*
X004199Y005084D01*
X004208Y005151D01*
X003586Y005151D01*
X003586Y005289D01*
X003448Y005289D01*
X003448Y005910D01*
X003381Y005902D01*
X003293Y005878D01*
X003209Y005843D01*
X003131Y005798D01*
X003058Y005742D01*
X002994Y005678D01*
X002939Y005606D01*
X002893Y005527D01*
X002858Y005443D01*
X002835Y005355D01*
X002826Y005289D01*
X003448Y005289D01*
X003448Y005151D01*
X002826Y005151D01*
X002835Y005084D01*
X002858Y004996D01*
X002893Y004912D01*
X002939Y004833D01*
X002994Y004761D01*
X003058Y004697D01*
X003131Y004641D01*
X003209Y004596D01*
X003288Y004563D01*
X002634Y004563D01*
X002634Y005627D01*
X002517Y005744D01*
X000934Y005744D01*
X000817Y005627D01*
X000817Y002902D01*
X000934Y002785D01*
X007281Y002785D01*
X007339Y002843D01*
X007365Y002836D01*
X007584Y002836D01*
X007584Y003241D01*
X007702Y003241D01*
X007702Y002836D01*
X007921Y002836D01*
X007964Y002848D01*
X008002Y002870D01*
X008034Y002901D01*
X008056Y002940D01*
X008068Y002983D01*
X008068Y003241D01*
X007702Y003241D01*
X007702Y003359D01*
X008068Y003359D01*
X008068Y003618D01*
X008056Y003661D01*
X008034Y003699D01*
X008019Y003714D01*
X008034Y003728D01*
X008056Y003767D01*
X008068Y003810D01*
X008068Y004068D01*
X007702Y004068D01*
X007702Y004186D01*
X008068Y004186D01*
X008068Y004445D01*
X008056Y004488D01*
X008034Y004526D01*
X008019Y004540D01*
X008034Y004555D01*
X008056Y004593D01*
X008068Y004636D01*
X008068Y004895D01*
X007702Y004895D01*
X007702Y005013D01*
X008068Y005013D01*
X008068Y005271D01*
X008056Y005314D01*
X008034Y005353D01*
X008002Y005384D01*
X007964Y005406D01*
X007921Y005418D01*
X007702Y005418D01*
X007702Y005013D01*
X007584Y005013D01*
X007584Y005418D01*
X007398Y005418D01*
X007398Y005745D01*
X007326Y005817D01*
X007330Y005824D01*
X007342Y005867D01*
X007342Y005968D01*
X007342Y006069D01*
X007330Y006112D01*
X007322Y006127D01*
X007322Y006291D01*
X007398Y006367D01*
X007398Y006773D01*
X007584Y006773D01*
X007584Y007178D01*
X007702Y007178D01*
X007702Y006773D01*
X007921Y006773D01*
X007964Y006785D01*
X008002Y006807D01*
X008034Y006838D01*
X008056Y006877D01*
X008068Y006920D01*
X008068Y007178D01*
X007702Y007178D01*
X007702Y007296D01*
X008068Y007296D01*
X008068Y007555D01*
X008056Y007598D01*
X008034Y007636D01*
X008019Y007651D01*
X008034Y007665D01*
X008056Y007704D01*
X008068Y007747D01*
X008068Y008005D01*
X007702Y008005D01*
X007702Y008123D01*
X008068Y008123D01*
X008068Y008382D01*
X008056Y008425D01*
X008034Y008463D01*
X008019Y008477D01*
X008034Y008492D01*
X008056Y008530D01*
X008068Y008573D01*
X008068Y008832D01*
X007702Y008832D01*
X007702Y008950D01*
X008068Y008950D01*
X008068Y009208D01*
X008056Y009251D01*
X008034Y009290D01*
X008002Y009321D01*
X007964Y009343D01*
X007921Y009355D01*
X007702Y009355D01*
X007702Y008950D01*
X007584Y008950D01*
X007584Y009355D01*
X007365Y009355D01*
X007339Y009348D01*
X007584Y009225D02*
X007702Y009225D01*
X007702Y009089D02*
X007584Y009089D01*
X007584Y008952D02*
X007702Y008952D01*
X007702Y008832D02*
X007584Y008832D01*
X007584Y008528D01*
X007584Y008123D01*
X007702Y008123D01*
X007702Y008832D01*
X007702Y008816D02*
X007584Y008816D01*
X007584Y008680D02*
X007702Y008680D01*
X007702Y008543D02*
X007584Y008543D01*
X007584Y008407D02*
X007702Y008407D01*
X007702Y008271D02*
X007584Y008271D01*
X007584Y008135D02*
X007702Y008135D01*
X007702Y008005D02*
X007584Y008005D01*
X007584Y007296D01*
X007702Y007296D01*
X007702Y007600D01*
X007702Y008005D01*
X007702Y007998D02*
X007584Y007998D01*
X007584Y007862D02*
X007702Y007862D01*
X007702Y007726D02*
X007584Y007726D01*
X007584Y007589D02*
X007702Y007589D01*
X007702Y007453D02*
X007584Y007453D01*
X007584Y007317D02*
X007702Y007317D01*
X007702Y007180D02*
X014500Y007180D01*
X014469Y007105D02*
X014469Y006897D01*
X014549Y006704D01*
X014696Y006557D01*
X014775Y006524D01*
X014775Y005753D01*
X014519Y005496D01*
X014442Y005496D01*
X014561Y005615D01*
X014663Y005863D01*
X014663Y006131D01*
X014561Y006379D01*
X014371Y006568D01*
X014123Y006671D01*
X013855Y006671D01*
X013608Y006568D01*
X013418Y006379D01*
X013315Y006131D01*
X013315Y006097D01*
X013123Y006097D01*
X013016Y006097D01*
X013016Y006233D01*
X012670Y006233D01*
X012198Y006233D01*
X012198Y006233D01*
X012544Y006233D01*
X012670Y006233D01*
X012670Y006233D01*
X012670Y006540D01*
X012471Y006540D01*
X012434Y006530D01*
X012397Y006540D01*
X012198Y006540D01*
X012198Y006233D01*
X012198Y006233D01*
X012198Y006540D01*
X011999Y006540D01*
X011956Y006529D01*
X011917Y006506D01*
X011886Y006475D01*
X011863Y006436D01*
X011853Y006398D01*
X011683Y006568D01*
X011556Y006695D01*
X009028Y006695D01*
X009016Y006707D01*
X008499Y006707D01*
X008412Y006620D01*
X008412Y006127D01*
X008404Y006112D01*
X008392Y006069D01*
X008392Y005968D01*
X008758Y005968D01*
X008758Y005712D01*
X008758Y005464D01*
X008909Y005464D01*
X008909Y004257D01*
X009000Y004167D01*
X009127Y004039D01*
X009133Y004039D01*
X009133Y003999D01*
X009133Y003908D01*
X009145Y003865D01*
X009167Y003826D01*
X009199Y003795D01*
X009237Y003773D01*
X009280Y003761D01*
X009479Y003761D01*
X009479Y003999D01*
X009133Y003999D01*
X009479Y003999D01*
X009479Y003999D01*
X009479Y003999D01*
X009479Y003761D01*
X009679Y003761D01*
X009722Y003773D01*
X009967Y003773D01*
X009962Y003756D02*
X009962Y003448D01*
X010377Y003448D01*
X010377Y003902D01*
X010109Y003902D01*
X010066Y003891D01*
X010027Y003868D01*
X009996Y003837D01*
X009974Y003799D01*
X009962Y003756D01*
X009814Y003865D02*
X009825Y003908D01*
X009825Y003999D01*
X009479Y003999D01*
X009479Y003999D01*
X009825Y003999D01*
X009825Y004090D01*
X009814Y004133D01*
X009805Y004148D01*
X009805Y004362D01*
X009814Y004377D01*
X009825Y004420D01*
X009825Y004511D01*
X009825Y004602D01*
X009816Y004639D01*
X009825Y004676D01*
X009825Y004767D01*
X009825Y004858D01*
X009816Y004895D01*
X009825Y004932D01*
X009825Y005023D01*
X009825Y005114D01*
X009814Y005157D01*
X009805Y005172D01*
X009805Y005386D01*
X009814Y005400D01*
X009825Y005443D01*
X009825Y005535D01*
X009825Y005626D01*
X009814Y005669D01*
X009805Y005683D01*
X009805Y005921D01*
X009718Y006008D01*
X009345Y006008D01*
X009345Y006225D01*
X009310Y006260D01*
X010297Y006260D01*
X010297Y005861D01*
X010366Y005792D01*
X010366Y004911D01*
X011114Y004163D01*
X011242Y004035D01*
X011407Y004035D01*
X011407Y003882D01*
X011172Y003882D01*
X011084Y003795D01*
X011084Y002963D01*
X011092Y002955D01*
X010916Y002955D01*
X010918Y002959D02*
X010930Y003002D01*
X010930Y003310D01*
X010515Y003310D01*
X010515Y003448D01*
X010930Y003448D01*
X010930Y003756D01*
X010918Y003799D01*
X010896Y003837D01*
X010865Y003868D01*
X010826Y003891D01*
X010783Y003902D01*
X010515Y003902D01*
X010515Y003448D01*
X010377Y003448D01*
X010377Y003310D01*
X010515Y003310D01*
X010515Y002856D01*
X010783Y002856D01*
X010826Y002867D01*
X010865Y002890D01*
X010896Y002921D01*
X010918Y002959D01*
X010930Y003092D02*
X011084Y003092D01*
X011084Y003228D02*
X010930Y003228D01*
X011084Y003364D02*
X010515Y003364D01*
X010515Y003501D02*
X010377Y003501D01*
X010377Y003637D02*
X010515Y003637D01*
X010515Y003773D02*
X010377Y003773D01*
X009962Y003637D02*
X008063Y003637D01*
X008068Y003501D02*
X009962Y003501D01*
X009962Y003310D02*
X009962Y003002D01*
X009974Y002959D01*
X009996Y002921D01*
X010027Y002890D01*
X010066Y002867D01*
X010109Y002856D01*
X010377Y002856D01*
X010377Y003310D01*
X009962Y003310D01*
X009962Y003228D02*
X008068Y003228D01*
X008068Y003092D02*
X009962Y003092D01*
X009976Y002955D02*
X008060Y002955D01*
X007702Y002955D02*
X007584Y002955D01*
X007584Y003092D02*
X007702Y003092D01*
X007702Y003228D02*
X007584Y003228D01*
X007584Y003359D02*
X007584Y003764D01*
X007584Y004068D01*
X007702Y004068D01*
X007702Y003359D01*
X007584Y003359D01*
X007584Y003364D02*
X007702Y003364D01*
X007702Y003501D02*
X007584Y003501D01*
X007584Y003637D02*
X007702Y003637D01*
X007702Y003773D02*
X007584Y003773D01*
X007584Y003909D02*
X007702Y003909D01*
X007702Y004046D02*
X007584Y004046D01*
X007584Y004186D02*
X007584Y004490D01*
X007584Y004895D01*
X007702Y004895D01*
X007702Y004186D01*
X007584Y004186D01*
X007702Y004182D02*
X008985Y004182D01*
X008909Y004318D02*
X008068Y004318D01*
X008065Y004455D02*
X008909Y004455D01*
X008909Y004591D02*
X008055Y004591D01*
X008068Y004727D02*
X008909Y004727D01*
X008909Y004863D02*
X008068Y004863D01*
X008068Y005136D02*
X008909Y005136D01*
X008909Y005000D02*
X007702Y005000D01*
X007702Y005136D02*
X007584Y005136D01*
X007584Y005272D02*
X007702Y005272D01*
X007702Y005409D02*
X007584Y005409D01*
X007398Y005545D02*
X008417Y005545D01*
X008426Y005530D02*
X008457Y005498D01*
X008496Y005476D01*
X008539Y005464D01*
X008758Y005464D01*
X008758Y005712D01*
X008758Y005712D01*
X008758Y005712D01*
X008392Y005712D01*
X008392Y005611D01*
X008404Y005568D01*
X008426Y005530D01*
X008392Y005681D02*
X007398Y005681D01*
X007327Y005818D02*
X008393Y005818D01*
X008392Y005813D02*
X008392Y005712D01*
X008758Y005712D01*
X008758Y005712D01*
X008758Y005960D01*
X008758Y005968D01*
X008758Y005968D01*
X008392Y005968D01*
X008392Y005867D01*
X008399Y005840D01*
X008392Y005813D01*
X008392Y005954D02*
X007342Y005954D01*
X007342Y005968D02*
X006976Y005968D01*
X006611Y005968D01*
X006976Y005968D01*
X006976Y005968D01*
X007342Y005968D01*
X007336Y006090D02*
X008398Y006090D01*
X008412Y006226D02*
X007322Y006226D01*
X007394Y006363D02*
X008412Y006363D01*
X008412Y006499D02*
X007398Y006499D01*
X007398Y006635D02*
X008427Y006635D01*
X008758Y006480D02*
X008760Y006477D01*
X011466Y006477D01*
X011743Y006200D01*
X011743Y005790D01*
X011743Y005535D02*
X011263Y005535D01*
X011096Y005702D01*
X011096Y006099D01*
X010840Y005830D02*
X010878Y005792D01*
X010878Y005612D01*
X011005Y005484D01*
X011173Y005317D01*
X011353Y005317D01*
X011417Y005317D01*
X011417Y005172D01*
X011409Y005157D01*
X011397Y005114D01*
X011397Y005023D01*
X011743Y005023D01*
X011743Y005023D01*
X011397Y005023D01*
X011397Y004932D01*
X011407Y004895D01*
X011397Y004858D01*
X011397Y004767D01*
X011743Y004767D01*
X011743Y005023D01*
X012089Y005023D01*
X012089Y005061D01*
X012815Y005061D01*
X012884Y004992D01*
X013362Y004992D01*
X013431Y005061D01*
X014700Y005061D01*
X015083Y005445D01*
X015211Y005572D01*
X015211Y006524D01*
X015290Y006557D01*
X015437Y006704D01*
X015517Y006897D01*
X015517Y007105D01*
X015437Y007298D01*
X015290Y007445D01*
X015097Y007525D01*
X014889Y007525D01*
X014696Y007445D01*
X014549Y007298D01*
X014469Y007105D01*
X014469Y007044D02*
X008068Y007044D01*
X008064Y006908D02*
X014469Y006908D01*
X014521Y006772D02*
X007398Y006772D01*
X007584Y006908D02*
X007702Y006908D01*
X007702Y007044D02*
X007584Y007044D01*
X008068Y007317D02*
X014568Y007317D01*
X014715Y007453D02*
X014390Y007453D01*
X014371Y007434D02*
X014561Y007623D01*
X014663Y007871D01*
X014663Y008139D01*
X014561Y008387D01*
X014371Y008576D01*
X014123Y008679D01*
X013855Y008679D01*
X013608Y008576D01*
X013418Y008387D01*
X013315Y008139D01*
X013315Y007871D01*
X013418Y007623D01*
X013608Y007434D01*
X013855Y007331D01*
X014123Y007331D01*
X014371Y007434D01*
X014527Y007589D02*
X015460Y007589D01*
X015426Y007623D02*
X015615Y007434D01*
X015863Y007331D01*
X016131Y007331D01*
X016379Y007434D01*
X016568Y007623D01*
X016671Y007871D01*
X016671Y008139D01*
X016568Y008387D01*
X016379Y008576D01*
X016131Y008679D01*
X015863Y008679D01*
X015615Y008576D01*
X015426Y008387D01*
X015323Y008139D01*
X015323Y007871D01*
X015426Y007623D01*
X015383Y007726D02*
X014603Y007726D01*
X014659Y007862D02*
X015327Y007862D01*
X015323Y007998D02*
X014663Y007998D01*
X014663Y008135D02*
X015323Y008135D01*
X015378Y008271D02*
X014609Y008271D01*
X014540Y008407D02*
X015446Y008407D01*
X015583Y008543D02*
X014404Y008543D01*
X013575Y008543D02*
X008060Y008543D01*
X008061Y008407D02*
X013438Y008407D01*
X013370Y008271D02*
X008068Y008271D01*
X008068Y008135D02*
X013315Y008135D01*
X013315Y007998D02*
X008068Y007998D01*
X008068Y007862D02*
X013319Y007862D01*
X013376Y007726D02*
X008062Y007726D01*
X008058Y007589D02*
X013452Y007589D01*
X013588Y007453D02*
X008068Y007453D01*
X006554Y006772D02*
X006050Y006772D01*
X006047Y006769D02*
X006103Y006841D01*
X006148Y006920D01*
X006183Y007004D01*
X006207Y007092D01*
X006215Y007159D01*
X005594Y007159D01*
X005594Y007158D02*
X005594Y006537D01*
X005660Y006545D01*
X005748Y006569D01*
X005832Y006604D01*
X005911Y006649D01*
X005983Y006705D01*
X006047Y006769D01*
X005887Y006635D02*
X006604Y006635D01*
X006604Y006499D02*
X006542Y006499D01*
X006042Y006499D02*
X004974Y006499D01*
X004850Y006635D02*
X005162Y006635D01*
X005456Y006635D02*
X005594Y006635D01*
X005594Y006772D02*
X005456Y006772D01*
X005456Y006908D02*
X005594Y006908D01*
X005594Y007044D02*
X005456Y007044D01*
X005456Y007180D02*
X003586Y007180D01*
X003448Y007180D02*
X002634Y007180D01*
X002634Y007317D02*
X002829Y007317D01*
X002859Y007453D02*
X002634Y007453D01*
X002634Y007589D02*
X002925Y007589D01*
X003034Y007726D02*
X002634Y007726D01*
X002634Y007862D02*
X003236Y007862D01*
X003798Y007862D02*
X005243Y007862D01*
X005042Y007726D02*
X004000Y007726D01*
X004109Y007589D02*
X004932Y007589D01*
X004867Y007453D02*
X004174Y007453D01*
X004205Y007317D02*
X004837Y007317D01*
X004855Y007044D02*
X004186Y007044D01*
X004134Y006908D02*
X004908Y006908D01*
X005000Y006772D02*
X004042Y006772D01*
X004192Y006635D02*
X003879Y006635D01*
X004068Y006499D02*
X002276Y006499D01*
X002256Y006527D02*
X002204Y006579D01*
X002144Y006622D01*
X002079Y006655D01*
X002009Y006678D01*
X001937Y006689D01*
X001633Y006689D01*
X001633Y006253D01*
X002366Y006253D01*
X002366Y006260D01*
X002355Y006333D01*
X002332Y006402D01*
X002299Y006468D01*
X002256Y006527D01*
X002118Y006635D02*
X003155Y006635D01*
X002992Y006772D02*
X002566Y006772D01*
X002634Y006908D02*
X002900Y006908D01*
X002848Y007044D02*
X002634Y007044D01*
X003448Y007044D02*
X003586Y007044D01*
X003586Y006908D02*
X003448Y006908D01*
X003448Y006772D02*
X003586Y006772D01*
X003586Y006635D02*
X003448Y006635D01*
X004011Y006363D02*
X002345Y006363D01*
X002366Y006194D02*
X001633Y006194D01*
X001633Y006253D01*
X001574Y006253D01*
X001574Y006689D01*
X001270Y006689D01*
X001198Y006678D01*
X001128Y006655D01*
X001062Y006622D01*
X001003Y006579D01*
X000951Y006527D01*
X000908Y006468D01*
X000875Y006402D01*
X000852Y006333D01*
X000841Y006260D01*
X000841Y006253D01*
X001574Y006253D01*
X001574Y006194D01*
X001633Y006194D01*
X001633Y005758D01*
X001937Y005758D01*
X002009Y005769D01*
X002079Y005792D01*
X002144Y005825D01*
X002204Y005868D01*
X002256Y005920D01*
X002299Y005979D01*
X002332Y006045D01*
X002355Y006114D01*
X002366Y006187D01*
X002366Y006194D01*
X002347Y006090D02*
X004009Y006090D01*
X003997Y006226D02*
X001633Y006226D01*
X001574Y006226D02*
X000308Y006226D01*
X000308Y006090D02*
X000860Y006090D01*
X000852Y006114D02*
X000841Y006187D01*
X000841Y006194D01*
X001574Y006194D01*
X001574Y005758D01*
X001270Y005758D01*
X001198Y005769D01*
X001128Y005792D01*
X001062Y005825D01*
X001003Y005868D01*
X000951Y005920D01*
X000908Y005979D01*
X000875Y006045D01*
X000852Y006114D01*
X000927Y005954D02*
X000308Y005954D01*
X000308Y005818D02*
X001077Y005818D01*
X000871Y005681D02*
X000308Y005681D01*
X000308Y005545D02*
X000817Y005545D01*
X000817Y005409D02*
X000308Y005409D01*
X000308Y005272D02*
X000817Y005272D01*
X000817Y005136D02*
X000308Y005136D01*
X000308Y005000D02*
X000817Y005000D01*
X000817Y004863D02*
X000308Y004863D01*
X000308Y004727D02*
X000817Y004727D01*
X000817Y004591D02*
X000308Y004591D01*
X000308Y004455D02*
X000817Y004455D01*
X000817Y004318D02*
X000308Y004318D01*
X000308Y004182D02*
X000817Y004182D01*
X000817Y004046D02*
X000308Y004046D01*
X000308Y003909D02*
X000817Y003909D01*
X000817Y003773D02*
X000308Y003773D01*
X000308Y003637D02*
X000817Y003637D01*
X000817Y003501D02*
X000308Y003501D01*
X000308Y003364D02*
X000817Y003364D01*
X000817Y003228D02*
X000308Y003228D01*
X000308Y003092D02*
X000817Y003092D01*
X000817Y002955D02*
X000308Y002955D01*
X000308Y002819D02*
X000900Y002819D01*
X000308Y002683D02*
X011092Y002683D01*
X011092Y002819D02*
X007315Y002819D01*
X008068Y003364D02*
X010377Y003364D01*
X010377Y003228D02*
X010515Y003228D01*
X010515Y003092D02*
X010377Y003092D01*
X010377Y002955D02*
X010515Y002955D01*
X011092Y002955D02*
X011092Y000934D01*
X011210Y000817D01*
X011926Y000817D01*
X012044Y000934D01*
X012044Y003187D01*
X012069Y003181D01*
X012269Y003181D01*
X012468Y003181D01*
X012511Y003192D01*
X012550Y003214D01*
X012581Y003246D01*
X012603Y003284D01*
X012615Y003327D01*
X012615Y003487D01*
X012269Y003487D01*
X012269Y003487D01*
X012269Y003181D01*
X012269Y003487D01*
X012269Y003487D01*
X012615Y003487D01*
X012615Y003647D01*
X012603Y003690D01*
X012581Y003729D01*
X012553Y003757D01*
X012595Y003800D01*
X012595Y004199D01*
X012508Y004286D01*
X012069Y004286D01*
X012069Y004293D01*
X012815Y004293D01*
X012839Y004269D01*
X012811Y004241D01*
X012789Y004202D01*
X012777Y004159D01*
X012777Y003999D01*
X012777Y003839D01*
X012789Y003796D01*
X012811Y003758D01*
X012842Y003726D01*
X012881Y003704D01*
X012924Y003692D01*
X013123Y003692D01*
X013123Y003999D01*
X013123Y003999D01*
X012777Y003999D01*
X013123Y003999D01*
X013123Y003999D01*
X013123Y003692D01*
X013303Y003692D01*
X013307Y003657D01*
X013331Y003569D01*
X013366Y003485D01*
X013411Y003406D01*
X013466Y003334D01*
X013531Y003270D01*
X013603Y003214D01*
X013682Y003169D01*
X013766Y003134D01*
X013854Y003110D01*
X013920Y003102D01*
X013920Y003723D01*
X014058Y003723D01*
X014058Y003102D01*
X014125Y003110D01*
X014213Y003134D01*
X014297Y003169D01*
X014376Y003214D01*
X014448Y003270D01*
X014512Y003334D01*
X014567Y003406D01*
X014613Y003485D01*
X014648Y003569D01*
X014671Y003657D01*
X014680Y003723D01*
X014058Y003723D01*
X014058Y003861D01*
X014680Y003861D01*
X014671Y003928D01*
X014648Y004016D01*
X014613Y004100D01*
X014567Y004179D01*
X014512Y004251D01*
X014470Y004293D01*
X014519Y004293D01*
X014775Y004037D01*
X014775Y003265D01*
X014696Y003233D01*
X014549Y003085D01*
X014469Y002893D01*
X014469Y002684D01*
X014549Y002492D01*
X014696Y002344D01*
X014889Y002265D01*
X015097Y002265D01*
X015290Y002344D01*
X015437Y002492D01*
X015517Y002684D01*
X015517Y002893D01*
X015437Y003085D01*
X015290Y003233D01*
X015211Y003265D01*
X015211Y004217D01*
X015083Y004345D01*
X014700Y004729D01*
X013431Y004729D01*
X013362Y004798D01*
X012884Y004798D01*
X012815Y004729D01*
X012089Y004729D01*
X012089Y004767D01*
X012089Y004858D01*
X012079Y004895D01*
X012089Y004932D01*
X012089Y005023D01*
X011743Y005023D01*
X011743Y005023D01*
X011743Y005023D01*
X011743Y004785D01*
X011743Y004767D01*
X011743Y004767D01*
X011743Y004767D01*
X011397Y004767D01*
X011397Y004676D01*
X011409Y004633D01*
X011417Y004618D01*
X011417Y004476D01*
X010802Y005091D01*
X010802Y005792D01*
X010840Y005830D01*
X010852Y005818D02*
X010827Y005818D01*
X010802Y005681D02*
X010878Y005681D01*
X010944Y005545D02*
X010802Y005545D01*
X010802Y005409D02*
X011081Y005409D01*
X010802Y005272D02*
X011417Y005272D01*
X011403Y005136D02*
X010802Y005136D01*
X010893Y005000D02*
X011397Y005000D01*
X011399Y004863D02*
X011029Y004863D01*
X011166Y004727D02*
X011397Y004727D01*
X011417Y004591D02*
X011302Y004591D01*
X011743Y004511D02*
X013123Y004511D01*
X014609Y004511D01*
X014993Y004127D01*
X014993Y002788D01*
X014526Y002546D02*
X012044Y002546D01*
X012044Y002683D02*
X014470Y002683D01*
X014469Y002819D02*
X012044Y002819D01*
X012044Y002955D02*
X014495Y002955D01*
X014555Y003092D02*
X012044Y003092D01*
X012269Y003228D02*
X012269Y003228D01*
X012269Y003364D02*
X012269Y003364D01*
X012563Y003228D02*
X013585Y003228D01*
X013443Y003364D02*
X012615Y003364D01*
X012615Y003501D02*
X013359Y003501D01*
X013313Y003637D02*
X012615Y003637D01*
X012568Y003773D02*
X012802Y003773D01*
X012777Y003909D02*
X012595Y003909D01*
X012595Y004046D02*
X012777Y004046D01*
X012783Y004182D02*
X012595Y004182D01*
X012269Y003999D02*
X011743Y003999D01*
X011407Y003909D02*
X009825Y003909D01*
X009814Y003865D02*
X009792Y003826D01*
X009760Y003795D01*
X009722Y003773D01*
X009479Y003773D02*
X009479Y003773D01*
X009479Y003909D02*
X009479Y003909D01*
X009237Y003773D02*
X008058Y003773D01*
X008068Y003909D02*
X009133Y003909D01*
X009121Y004046D02*
X008068Y004046D01*
X007702Y004318D02*
X007584Y004318D01*
X007584Y004455D02*
X007702Y004455D01*
X007702Y004591D02*
X007584Y004591D01*
X007584Y004727D02*
X007702Y004727D01*
X007702Y004863D02*
X007584Y004863D01*
X008067Y005272D02*
X008909Y005272D01*
X008909Y005409D02*
X007956Y005409D01*
X008758Y005545D02*
X008758Y005545D01*
X008758Y005681D02*
X008758Y005681D01*
X008758Y005818D02*
X008758Y005818D01*
X008758Y005954D02*
X008758Y005954D01*
X008758Y005968D02*
X008758Y005968D01*
X008758Y006224D02*
X009038Y006224D01*
X009127Y006135D01*
X009127Y004348D01*
X009218Y004257D01*
X009477Y004257D01*
X009479Y004255D01*
X009479Y004511D02*
X009479Y004511D01*
X009479Y004749D01*
X009479Y004767D01*
X009479Y005005D01*
X009479Y005023D01*
X009479Y005023D01*
X009825Y005023D01*
X009479Y005023D01*
X009479Y005023D01*
X009479Y004767D01*
X009479Y004767D01*
X009479Y004767D01*
X009825Y004767D01*
X009479Y004767D01*
X009479Y004767D01*
X009479Y004511D01*
X009479Y004511D01*
X009825Y004511D01*
X009479Y004511D01*
X009479Y004591D02*
X009479Y004591D01*
X009479Y004727D02*
X009479Y004727D01*
X009479Y004863D02*
X009479Y004863D01*
X009479Y005000D02*
X009479Y005000D01*
X009825Y005000D02*
X010366Y005000D01*
X010366Y005136D02*
X009820Y005136D01*
X009805Y005272D02*
X010366Y005272D01*
X010366Y005409D02*
X009816Y005409D01*
X009825Y005535D02*
X009479Y005535D01*
X009825Y005535D01*
X009825Y005545D02*
X010366Y005545D01*
X010366Y005681D02*
X009807Y005681D01*
X009805Y005818D02*
X010340Y005818D01*
X010297Y005954D02*
X009773Y005954D01*
X009345Y006090D02*
X010297Y006090D01*
X010297Y006226D02*
X009344Y006226D01*
X009479Y005535D02*
X009479Y005535D01*
X009824Y004863D02*
X010413Y004863D01*
X010584Y005001D02*
X011332Y004253D01*
X011741Y004253D01*
X011743Y004255D01*
X011231Y004046D02*
X009825Y004046D01*
X009805Y004182D02*
X011095Y004182D01*
X010959Y004318D02*
X009805Y004318D01*
X009825Y004455D02*
X010822Y004455D01*
X010686Y004591D02*
X009825Y004591D01*
X009825Y004727D02*
X010550Y004727D01*
X010584Y005001D02*
X010584Y006099D01*
X011616Y006635D02*
X013769Y006635D01*
X013538Y006499D02*
X012959Y006499D01*
X012951Y006506D02*
X012913Y006529D01*
X012870Y006540D01*
X012670Y006540D01*
X012670Y006233D01*
X012670Y006233D01*
X012670Y006233D01*
X013016Y006233D01*
X013016Y006393D01*
X013005Y006436D01*
X012983Y006475D01*
X012951Y006506D01*
X012670Y006499D02*
X012670Y006499D01*
X012670Y006363D02*
X012670Y006363D01*
X013016Y006363D02*
X013411Y006363D01*
X013355Y006226D02*
X013016Y006226D01*
X013123Y006097D02*
X013123Y005790D01*
X013123Y005790D01*
X013123Y006097D01*
X013123Y006090D02*
X013123Y006090D01*
X013123Y005954D02*
X013123Y005954D01*
X013123Y005818D02*
X013123Y005818D01*
X012670Y005722D02*
X012198Y005722D01*
X012011Y005535D01*
X011743Y005535D01*
X011743Y005279D02*
X013123Y005279D01*
X014609Y005279D01*
X014993Y005662D01*
X014993Y007001D01*
X015486Y007180D02*
X016765Y007180D01*
X016765Y007317D02*
X015418Y007317D01*
X015271Y007453D02*
X015596Y007453D01*
X015517Y007044D02*
X016765Y007044D01*
X016765Y006908D02*
X015517Y006908D01*
X015465Y006772D02*
X016765Y006772D01*
X016765Y006635D02*
X016217Y006635D01*
X016131Y006671D02*
X015863Y006671D01*
X015615Y006568D01*
X015426Y006379D01*
X015323Y006131D01*
X015323Y005863D01*
X015426Y005615D01*
X015615Y005426D01*
X015863Y005323D01*
X016131Y005323D01*
X016379Y005426D01*
X016568Y005615D01*
X016671Y005863D01*
X016671Y006131D01*
X016568Y006379D01*
X016379Y006568D01*
X016131Y006671D01*
X015777Y006635D02*
X015368Y006635D01*
X015211Y006499D02*
X015546Y006499D01*
X015419Y006363D02*
X015211Y006363D01*
X015211Y006226D02*
X015363Y006226D01*
X015323Y006090D02*
X015211Y006090D01*
X015211Y005954D02*
X015323Y005954D01*
X015342Y005818D02*
X015211Y005818D01*
X015211Y005681D02*
X015399Y005681D01*
X015496Y005545D02*
X015184Y005545D01*
X015047Y005409D02*
X015657Y005409D01*
X016337Y005409D02*
X016765Y005409D01*
X016765Y005545D02*
X016498Y005545D01*
X016596Y005681D02*
X016765Y005681D01*
X016765Y005818D02*
X016652Y005818D01*
X016671Y005954D02*
X016765Y005954D01*
X016765Y006090D02*
X016671Y006090D01*
X016632Y006226D02*
X016765Y006226D01*
X016765Y006363D02*
X016575Y006363D01*
X016448Y006499D02*
X016765Y006499D01*
X016765Y007453D02*
X016398Y007453D01*
X016535Y007589D02*
X016765Y007589D01*
X016765Y007726D02*
X016611Y007726D01*
X016667Y007862D02*
X016765Y007862D01*
X016765Y007998D02*
X016671Y007998D01*
X016671Y008135D02*
X016765Y008135D01*
X016765Y008271D02*
X016616Y008271D01*
X016548Y008407D02*
X016765Y008407D01*
X016765Y008543D02*
X016412Y008543D01*
X016765Y008680D02*
X008068Y008680D01*
X008068Y008816D02*
X016765Y008816D01*
X016765Y008952D02*
X008068Y008952D01*
X008068Y009089D02*
X016765Y009089D01*
X016765Y009225D02*
X008063Y009225D01*
X006486Y007862D02*
X005806Y007862D01*
X006008Y007726D02*
X006486Y007726D01*
X006486Y007589D02*
X006117Y007589D01*
X006182Y007453D02*
X006486Y007453D01*
X006486Y007317D02*
X006213Y007317D01*
X006486Y007180D02*
X005594Y007180D01*
X006141Y006908D02*
X006486Y006908D01*
X006486Y007044D02*
X006194Y007044D01*
X006591Y005996D02*
X006611Y005996D01*
X006611Y005968D01*
X006611Y005943D01*
X006605Y005953D01*
X006576Y005982D01*
X006591Y005996D01*
X006604Y005954D02*
X006611Y005954D01*
X006976Y005968D02*
X006976Y005968D01*
X006292Y005712D02*
X006292Y005405D01*
X006292Y005712D01*
X006292Y005712D01*
X006292Y005681D02*
X006292Y005681D01*
X006292Y005545D02*
X006292Y005545D01*
X006292Y005409D02*
X006292Y005409D01*
X006292Y005405D02*
X006193Y005405D01*
X006207Y005355D01*
X006215Y005289D01*
X005594Y005289D01*
X005594Y005151D01*
X006215Y005151D01*
X006207Y005084D01*
X006183Y004996D01*
X006148Y004912D01*
X006103Y004833D01*
X006047Y004761D01*
X005983Y004697D01*
X005911Y004641D01*
X005832Y004596D01*
X005754Y004563D01*
X006486Y004563D01*
X006486Y005391D01*
X006503Y005408D01*
X006492Y005405D01*
X006292Y005405D01*
X006486Y005272D02*
X005594Y005272D01*
X005594Y005409D02*
X005456Y005409D01*
X005456Y005545D02*
X005594Y005545D01*
X005594Y005681D02*
X005456Y005681D01*
X005456Y005818D02*
X005594Y005818D01*
X005877Y005818D02*
X005946Y005818D01*
X005981Y005954D02*
X004976Y005954D01*
X004856Y005818D02*
X005172Y005818D01*
X005005Y005681D02*
X004037Y005681D01*
X004040Y005678D02*
X003975Y005742D01*
X003903Y005798D01*
X003824Y005843D01*
X003740Y005878D01*
X003653Y005902D01*
X003586Y005910D01*
X003586Y005289D01*
X004208Y005289D01*
X004199Y005355D01*
X004175Y005443D01*
X004141Y005527D01*
X004095Y005606D01*
X004040Y005678D01*
X004186Y005818D02*
X003869Y005818D01*
X004065Y005954D02*
X002280Y005954D01*
X002129Y005818D02*
X003165Y005818D01*
X002997Y005681D02*
X002580Y005681D01*
X002634Y005545D02*
X002903Y005545D01*
X002849Y005409D02*
X002634Y005409D01*
X002634Y005272D02*
X003448Y005272D01*
X003448Y005409D02*
X003586Y005409D01*
X003586Y005545D02*
X003448Y005545D01*
X003448Y005681D02*
X003586Y005681D01*
X003586Y005818D02*
X003448Y005818D01*
X004130Y005545D02*
X004911Y005545D01*
X004857Y005409D02*
X004185Y005409D01*
X004206Y005136D02*
X004836Y005136D01*
X004865Y005000D02*
X004176Y005000D01*
X004112Y004863D02*
X004929Y004863D01*
X005036Y004727D02*
X004006Y004727D01*
X003812Y004591D02*
X005229Y004591D01*
X005820Y004591D02*
X006486Y004591D01*
X006486Y004727D02*
X006014Y004727D01*
X006120Y004863D02*
X006486Y004863D01*
X006486Y005000D02*
X006184Y005000D01*
X006214Y005136D02*
X006486Y005136D01*
X005456Y005272D02*
X003586Y005272D01*
X002921Y004863D02*
X002634Y004863D01*
X002634Y005000D02*
X002857Y005000D01*
X002828Y005136D02*
X002634Y005136D01*
X002634Y004727D02*
X003028Y004727D01*
X003222Y004591D02*
X002634Y004591D01*
X001633Y005818D02*
X001574Y005818D01*
X001574Y005954D02*
X001633Y005954D01*
X001633Y006090D02*
X001574Y006090D01*
X001574Y006363D02*
X001633Y006363D01*
X001633Y006499D02*
X001574Y006499D01*
X001574Y006635D02*
X001633Y006635D01*
X001089Y006635D02*
X000308Y006635D01*
X000308Y006499D02*
X000931Y006499D01*
X000862Y006363D02*
X000308Y006363D01*
X000308Y006772D02*
X000885Y006772D01*
X000817Y006908D02*
X000308Y006908D01*
X000308Y007044D02*
X000817Y007044D01*
X000817Y007180D02*
X000308Y007180D01*
X000308Y007317D02*
X000817Y007317D01*
X000817Y007453D02*
X000308Y007453D01*
X000308Y007589D02*
X000817Y007589D01*
X000817Y007726D02*
X000308Y007726D01*
X000308Y007862D02*
X000817Y007862D01*
X000817Y007998D02*
X000308Y007998D01*
X000308Y008135D02*
X000817Y008135D01*
X000817Y008271D02*
X000308Y008271D01*
X000308Y008407D02*
X000817Y008407D01*
X000817Y008543D02*
X000308Y008543D01*
X000308Y008680D02*
X000817Y008680D01*
X000817Y008816D02*
X000308Y008816D01*
X000308Y008952D02*
X000817Y008952D01*
X000817Y009089D02*
X000308Y009089D01*
X000308Y009225D02*
X000817Y009225D01*
X000889Y009361D02*
X000308Y009361D01*
X010925Y003773D02*
X011084Y003773D01*
X011084Y003637D02*
X010930Y003637D01*
X010930Y003501D02*
X011084Y003501D01*
X011092Y002546D02*
X000308Y002546D01*
X000308Y002410D02*
X011092Y002410D01*
X011092Y002274D02*
X010832Y002274D01*
X010852Y002259D02*
X010792Y002303D01*
X010727Y002336D01*
X010657Y002358D01*
X010585Y002370D01*
X010578Y002370D01*
X010578Y001637D01*
X011014Y001637D01*
X011014Y001941D01*
X011003Y002013D01*
X010980Y002083D01*
X010947Y002148D01*
X010904Y002208D01*
X010852Y002259D01*
X010952Y002138D02*
X011092Y002138D01*
X011092Y002001D02*
X011004Y002001D01*
X011014Y001865D02*
X011092Y001865D01*
X011092Y001729D02*
X011014Y001729D01*
X011014Y001578D02*
X010578Y001578D01*
X010578Y001637D01*
X010519Y001637D01*
X010519Y002370D01*
X010512Y002370D01*
X010439Y002358D01*
X010370Y002336D01*
X010304Y002303D01*
X010245Y002259D01*
X010193Y002208D01*
X010150Y002148D01*
X010117Y002083D01*
X010094Y002013D01*
X010083Y001941D01*
X010083Y001637D01*
X010519Y001637D01*
X010519Y001578D01*
X010578Y001578D01*
X010578Y000845D01*
X010585Y000845D01*
X010657Y000856D01*
X010727Y000879D01*
X010792Y000912D01*
X010852Y000955D01*
X010904Y001007D01*
X010947Y001066D01*
X010980Y001132D01*
X011003Y001201D01*
X011014Y001274D01*
X011014Y001578D01*
X011092Y001592D02*
X010578Y001592D01*
X010519Y001592D02*
X000308Y001592D01*
X000308Y001456D02*
X010083Y001456D01*
X010083Y001578D02*
X010083Y001274D01*
X010094Y001201D01*
X010117Y001132D01*
X010150Y001066D01*
X010193Y001007D01*
X010245Y000955D01*
X010304Y000912D01*
X010370Y000879D01*
X010439Y000856D01*
X010512Y000845D01*
X010519Y000845D01*
X010519Y001578D01*
X010083Y001578D01*
X010083Y001729D02*
X000308Y001729D01*
X000308Y001865D02*
X010083Y001865D01*
X010092Y002001D02*
X000308Y002001D01*
X000308Y002138D02*
X010144Y002138D01*
X010265Y002274D02*
X000308Y002274D01*
X000308Y001320D02*
X010083Y001320D01*
X010100Y001183D02*
X000308Y001183D01*
X000308Y001047D02*
X010164Y001047D01*
X010307Y000911D02*
X000308Y000911D01*
X000308Y000775D02*
X016765Y000775D01*
X016765Y000638D02*
X000308Y000638D01*
X000308Y000502D02*
X016765Y000502D01*
X016765Y000366D02*
X000308Y000366D01*
X010519Y000911D02*
X010578Y000911D01*
X010578Y001047D02*
X010519Y001047D01*
X010519Y001183D02*
X010578Y001183D01*
X010578Y001320D02*
X010519Y001320D01*
X010519Y001456D02*
X010578Y001456D01*
X010578Y001729D02*
X010519Y001729D01*
X010519Y001865D02*
X010578Y001865D01*
X010578Y002001D02*
X010519Y002001D01*
X010519Y002138D02*
X010578Y002138D01*
X010578Y002274D02*
X010519Y002274D01*
X011014Y001456D02*
X011092Y001456D01*
X011092Y001320D02*
X011014Y001320D01*
X010997Y001183D02*
X011092Y001183D01*
X011092Y001047D02*
X010933Y001047D01*
X010790Y000911D02*
X011115Y000911D01*
X012021Y000911D02*
X016765Y000911D01*
X016765Y001047D02*
X012044Y001047D01*
X012044Y001183D02*
X013643Y001183D01*
X013682Y001161D02*
X013603Y001206D01*
X013531Y001262D01*
X013466Y001326D01*
X013411Y001398D01*
X013366Y001477D01*
X013331Y001561D01*
X013307Y001649D01*
X013298Y001716D01*
X013920Y001716D01*
X013920Y001853D01*
X013298Y001853D01*
X013307Y001920D01*
X013331Y002008D01*
X013366Y002092D01*
X013411Y002171D01*
X013466Y002243D01*
X013531Y002307D01*
X013603Y002363D01*
X013682Y002408D01*
X013766Y002443D01*
X013854Y002467D01*
X013920Y002475D01*
X013920Y001853D01*
X014058Y001853D01*
X014680Y001853D01*
X014671Y001920D01*
X014648Y002008D01*
X014613Y002092D01*
X014567Y002171D01*
X014512Y002243D01*
X014448Y002307D01*
X014376Y002363D01*
X014297Y002408D01*
X014213Y002443D01*
X014125Y002467D01*
X014058Y002475D01*
X014058Y001853D01*
X014058Y001716D01*
X014680Y001716D01*
X014671Y001649D01*
X014648Y001561D01*
X014613Y001477D01*
X014567Y001398D01*
X014512Y001326D01*
X014448Y001262D01*
X014376Y001206D01*
X014297Y001161D01*
X014213Y001126D01*
X014125Y001103D01*
X014058Y001094D01*
X014058Y001716D01*
X013920Y001716D01*
X013920Y001094D01*
X013854Y001103D01*
X013766Y001126D01*
X013682Y001161D01*
X013920Y001183D02*
X014058Y001183D01*
X014336Y001183D02*
X015650Y001183D01*
X015690Y001161D02*
X015774Y001126D01*
X015861Y001103D01*
X015928Y001094D01*
X015928Y001716D01*
X015306Y001716D01*
X015315Y001649D01*
X015339Y001561D01*
X015373Y001477D01*
X015419Y001398D01*
X015474Y001326D01*
X015539Y001262D01*
X015611Y001206D01*
X015690Y001161D01*
X015928Y001183D02*
X016066Y001183D01*
X016066Y001094D02*
X016133Y001103D01*
X016221Y001126D01*
X016305Y001161D01*
X016383Y001206D01*
X016456Y001262D01*
X016520Y001326D01*
X016575Y001398D01*
X016621Y001477D01*
X016656Y001561D01*
X016679Y001649D01*
X016688Y001716D01*
X016066Y001716D01*
X016066Y001853D01*
X016688Y001853D01*
X016679Y001920D01*
X016656Y002008D01*
X016621Y002092D01*
X016575Y002171D01*
X016520Y002243D01*
X016456Y002307D01*
X016383Y002363D01*
X016305Y002408D01*
X016221Y002443D01*
X016133Y002467D01*
X016066Y002475D01*
X016066Y001853D01*
X015928Y001853D01*
X015928Y001716D01*
X016066Y001716D01*
X016066Y001094D01*
X016344Y001183D02*
X016765Y001183D01*
X016765Y001320D02*
X016514Y001320D01*
X016609Y001456D02*
X016765Y001456D01*
X016765Y001592D02*
X016664Y001592D01*
X016765Y001729D02*
X016066Y001729D01*
X016066Y001865D02*
X015928Y001865D01*
X015928Y001853D02*
X015928Y002475D01*
X015861Y002467D01*
X015774Y002443D01*
X015690Y002408D01*
X015611Y002363D01*
X015539Y002307D01*
X015474Y002243D01*
X015419Y002171D01*
X015373Y002092D01*
X015339Y002008D01*
X015315Y001920D01*
X015306Y001853D01*
X015928Y001853D01*
X015928Y001729D02*
X014058Y001729D01*
X014058Y001865D02*
X013920Y001865D01*
X013920Y002001D02*
X014058Y002001D01*
X014058Y002138D02*
X013920Y002138D01*
X013920Y002274D02*
X014058Y002274D01*
X014058Y002410D02*
X013920Y002410D01*
X013686Y002410D02*
X012044Y002410D01*
X012044Y002274D02*
X013497Y002274D01*
X013392Y002138D02*
X012044Y002138D01*
X012044Y002001D02*
X013329Y002001D01*
X013300Y001865D02*
X012044Y001865D01*
X012044Y001729D02*
X013920Y001729D01*
X013920Y001592D02*
X014058Y001592D01*
X014058Y001456D02*
X013920Y001456D01*
X013920Y001320D02*
X014058Y001320D01*
X014506Y001320D02*
X015481Y001320D01*
X015385Y001456D02*
X014601Y001456D01*
X014656Y001592D02*
X015330Y001592D01*
X015308Y001865D02*
X014679Y001865D01*
X014650Y002001D02*
X015337Y002001D01*
X015400Y002138D02*
X014587Y002138D01*
X014481Y002274D02*
X014867Y002274D01*
X015120Y002274D02*
X015505Y002274D01*
X015356Y002410D02*
X015694Y002410D01*
X015928Y002410D02*
X016066Y002410D01*
X016066Y002274D02*
X015928Y002274D01*
X015928Y002138D02*
X016066Y002138D01*
X016066Y002001D02*
X015928Y002001D01*
X016489Y002274D02*
X016765Y002274D01*
X016765Y002410D02*
X016300Y002410D01*
X016595Y002138D02*
X016765Y002138D01*
X016765Y002001D02*
X016657Y002001D01*
X016686Y001865D02*
X016765Y001865D01*
X016066Y001592D02*
X015928Y001592D01*
X015928Y001456D02*
X016066Y001456D01*
X016066Y001320D02*
X015928Y001320D01*
X014631Y002410D02*
X014292Y002410D01*
X015460Y002546D02*
X016765Y002546D01*
X016765Y002683D02*
X015516Y002683D01*
X015517Y002819D02*
X016765Y002819D01*
X016765Y002955D02*
X015491Y002955D01*
X015431Y003092D02*
X016765Y003092D01*
X016765Y003228D02*
X016401Y003228D01*
X016383Y003214D02*
X016456Y003270D01*
X016520Y003334D01*
X016575Y003406D01*
X016621Y003485D01*
X016656Y003569D01*
X016679Y003657D01*
X016688Y003723D01*
X016066Y003723D01*
X016066Y003102D01*
X016133Y003110D01*
X016221Y003134D01*
X016305Y003169D01*
X016383Y003214D01*
X016066Y003228D02*
X015928Y003228D01*
X015928Y003102D02*
X015861Y003110D01*
X015774Y003134D01*
X015690Y003169D01*
X015611Y003214D01*
X015539Y003270D01*
X015474Y003334D01*
X015419Y003406D01*
X015373Y003485D01*
X015339Y003569D01*
X015315Y003657D01*
X015306Y003723D01*
X015928Y003723D01*
X016066Y003723D01*
X016066Y003861D01*
X016688Y003861D01*
X016679Y003928D01*
X016656Y004016D01*
X016621Y004100D01*
X016575Y004179D01*
X016520Y004251D01*
X016456Y004315D01*
X016383Y004371D01*
X016305Y004416D01*
X016221Y004451D01*
X016133Y004474D01*
X016066Y004483D01*
X016066Y003861D01*
X015928Y003861D01*
X015928Y003723D01*
X015928Y003102D01*
X015593Y003228D02*
X015295Y003228D01*
X015211Y003364D02*
X015451Y003364D01*
X015367Y003501D02*
X015211Y003501D01*
X015211Y003637D02*
X015320Y003637D01*
X015211Y003773D02*
X015928Y003773D01*
X015928Y003861D02*
X015306Y003861D01*
X015315Y003928D01*
X015339Y004016D01*
X015373Y004100D01*
X015419Y004179D01*
X015474Y004251D01*
X015539Y004315D01*
X015611Y004371D01*
X015690Y004416D01*
X015774Y004451D01*
X015861Y004474D01*
X015928Y004483D01*
X015928Y003861D01*
X015928Y003909D02*
X016066Y003909D01*
X016066Y003773D02*
X016765Y003773D01*
X016765Y003909D02*
X016682Y003909D01*
X016643Y004046D02*
X016765Y004046D01*
X016765Y004182D02*
X016573Y004182D01*
X016452Y004318D02*
X016765Y004318D01*
X016765Y004455D02*
X016207Y004455D01*
X016066Y004455D02*
X015928Y004455D01*
X015787Y004455D02*
X014974Y004455D01*
X014837Y004591D02*
X016765Y004591D01*
X016765Y004727D02*
X014701Y004727D01*
X014775Y005136D02*
X016765Y005136D01*
X016765Y005000D02*
X013370Y005000D01*
X012876Y005000D02*
X012089Y005000D01*
X012088Y004863D02*
X016765Y004863D01*
X016765Y005272D02*
X014911Y005272D01*
X014568Y005545D02*
X014490Y005545D01*
X014588Y005681D02*
X014704Y005681D01*
X014644Y005818D02*
X014775Y005818D01*
X014775Y005954D02*
X014663Y005954D01*
X014663Y006090D02*
X014775Y006090D01*
X014775Y006226D02*
X014624Y006226D01*
X014567Y006363D02*
X014775Y006363D01*
X014775Y006499D02*
X014440Y006499D01*
X014618Y006635D02*
X014210Y006635D01*
X012198Y006499D02*
X012198Y006499D01*
X012198Y006363D02*
X012198Y006363D01*
X011910Y006499D02*
X011752Y006499D01*
X011743Y005000D02*
X011743Y005000D01*
X011743Y004863D02*
X011743Y004863D01*
X011743Y004767D02*
X012089Y004767D01*
X011743Y004767D01*
X011743Y004767D01*
X013123Y003909D02*
X013123Y003909D01*
X013123Y003773D02*
X013123Y003773D01*
X013920Y003637D02*
X014058Y003637D01*
X014058Y003501D02*
X013920Y003501D01*
X013920Y003364D02*
X014058Y003364D01*
X014058Y003228D02*
X013920Y003228D01*
X014394Y003228D02*
X014692Y003228D01*
X014775Y003364D02*
X014535Y003364D01*
X014619Y003501D02*
X014775Y003501D01*
X014775Y003637D02*
X014666Y003637D01*
X014775Y003773D02*
X014058Y003773D01*
X014674Y003909D02*
X014775Y003909D01*
X014767Y004046D02*
X014635Y004046D01*
X014630Y004182D02*
X014565Y004182D01*
X015110Y004318D02*
X015543Y004318D01*
X015421Y004182D02*
X015211Y004182D01*
X015211Y004046D02*
X015351Y004046D01*
X015313Y003909D02*
X015211Y003909D01*
X015928Y004046D02*
X016066Y004046D01*
X016066Y004182D02*
X015928Y004182D01*
X015928Y004318D02*
X016066Y004318D01*
X016066Y003637D02*
X015928Y003637D01*
X015928Y003501D02*
X016066Y003501D01*
X016066Y003364D02*
X015928Y003364D01*
X016543Y003364D02*
X016765Y003364D01*
X016765Y003501D02*
X016627Y003501D01*
X016674Y003637D02*
X016765Y003637D01*
X013322Y001592D02*
X012044Y001592D01*
X012044Y001456D02*
X013378Y001456D01*
X013473Y001320D02*
X012044Y001320D01*
D20*
X010938Y000505D03*
X012355Y002759D03*
X012355Y004899D03*
X012355Y006962D03*
X008655Y007237D03*
X008655Y004954D03*
X005584Y000505D03*
X000505Y000505D03*
X000505Y009599D03*
X005584Y009599D03*
X010938Y009599D03*
X016568Y009599D03*
X016568Y000505D03*
D21*
X006976Y006224D02*
X006293Y006224D01*
X006292Y006224D01*
X004521Y006224D01*
X006974Y007237D02*
X006976Y007235D01*
D22*
X007198Y007189D02*
X006686Y007189D01*
X006686Y007290D02*
X007198Y007290D01*
X007198Y007391D02*
X006686Y007391D01*
X006686Y007492D02*
X007198Y007492D01*
X007198Y007592D02*
X006686Y007592D01*
X006686Y007693D02*
X007198Y007693D01*
X007198Y007794D02*
X006686Y007794D01*
X006686Y007895D02*
X007198Y007895D01*
X007198Y007996D02*
X006686Y007996D01*
X006686Y008097D02*
X007198Y008097D01*
X007198Y008198D02*
X001017Y008198D01*
X001017Y008298D02*
X007198Y008298D01*
X007198Y008399D02*
X001017Y008399D01*
X001017Y008500D02*
X007198Y008500D01*
X007198Y008601D02*
X001017Y008601D01*
X001017Y008702D02*
X007198Y008702D01*
X007198Y008803D02*
X001017Y008803D01*
X001017Y008904D02*
X007198Y008904D01*
X007198Y009004D02*
X001017Y009004D01*
X001017Y009105D02*
X007198Y009105D01*
X007198Y009206D02*
X007198Y006450D01*
X006804Y006450D01*
X006804Y006804D01*
X006686Y006922D01*
X006686Y008103D01*
X002434Y008103D01*
X002434Y006922D01*
X001017Y006922D01*
X001017Y009206D01*
X007198Y009206D01*
X007198Y007088D02*
X006686Y007088D01*
X006686Y006987D02*
X007198Y006987D01*
X007198Y006886D02*
X006722Y006886D01*
X006804Y006785D02*
X007198Y006785D01*
X007198Y006685D02*
X006804Y006685D01*
X006804Y006584D02*
X007198Y006584D01*
X007198Y006483D02*
X006804Y006483D01*
X006804Y005662D02*
X007198Y005662D01*
X007198Y002985D01*
X001017Y002985D01*
X001017Y005544D01*
X002434Y005544D01*
X002434Y004363D01*
X006686Y004363D01*
X006686Y005308D01*
X006804Y005426D01*
X006804Y005662D01*
X006804Y005575D02*
X007198Y005575D01*
X007198Y005474D02*
X006804Y005474D01*
X006751Y005373D02*
X007198Y005373D01*
X007198Y005273D02*
X006686Y005273D01*
X006686Y005172D02*
X007198Y005172D01*
X007198Y005071D02*
X006686Y005071D01*
X006686Y004970D02*
X007198Y004970D01*
X007198Y004869D02*
X006686Y004869D01*
X006686Y004768D02*
X007198Y004768D01*
X007198Y004667D02*
X006686Y004667D01*
X006686Y004566D02*
X007198Y004566D01*
X007198Y004466D02*
X006686Y004466D01*
X006686Y004365D02*
X007198Y004365D01*
X007198Y004264D02*
X001017Y004264D01*
X001017Y004365D02*
X002434Y004365D01*
X002434Y004466D02*
X001017Y004466D01*
X001017Y004566D02*
X002434Y004566D01*
X002434Y004667D02*
X001017Y004667D01*
X001017Y004768D02*
X002434Y004768D01*
X002434Y004869D02*
X001017Y004869D01*
X001017Y004970D02*
X002434Y004970D01*
X002434Y005071D02*
X001017Y005071D01*
X001017Y005172D02*
X002434Y005172D01*
X002434Y005273D02*
X001017Y005273D01*
X001017Y005373D02*
X002434Y005373D01*
X002434Y005474D02*
X001017Y005474D01*
X001017Y004163D02*
X007198Y004163D01*
X007198Y004062D02*
X001017Y004062D01*
X001017Y003961D02*
X007198Y003961D01*
X007198Y003860D02*
X001017Y003860D01*
X001017Y003760D02*
X007198Y003760D01*
X007198Y003659D02*
X001017Y003659D01*
X001017Y003558D02*
X007198Y003558D01*
X007198Y003457D02*
X001017Y003457D01*
X001017Y003356D02*
X007198Y003356D01*
X007198Y003255D02*
X001017Y003255D01*
X001017Y003154D02*
X007198Y003154D01*
X007198Y003054D02*
X001017Y003054D01*
X001017Y006987D02*
X002434Y006987D01*
X002434Y007088D02*
X001017Y007088D01*
X001017Y007189D02*
X002434Y007189D01*
X002434Y007290D02*
X001017Y007290D01*
X001017Y007391D02*
X002434Y007391D01*
X002434Y007492D02*
X001017Y007492D01*
X001017Y007592D02*
X002434Y007592D01*
X002434Y007693D02*
X001017Y007693D01*
X001017Y007794D02*
X002434Y007794D01*
X002434Y007895D02*
X001017Y007895D01*
X001017Y007996D02*
X002434Y007996D01*
X002434Y008097D02*
X001017Y008097D01*
X011292Y003379D02*
X011332Y003379D01*
X011607Y003655D01*
X011607Y004285D01*
X011844Y004285D01*
X011844Y001017D01*
X011292Y001017D01*
X011292Y003379D01*
X011292Y003356D02*
X011844Y003356D01*
X011844Y003255D02*
X011292Y003255D01*
X011292Y003154D02*
X011844Y003154D01*
X011844Y003054D02*
X011292Y003054D01*
X011292Y002953D02*
X011844Y002953D01*
X011844Y002852D02*
X011292Y002852D01*
X011292Y002751D02*
X011844Y002751D01*
X011844Y002650D02*
X011292Y002650D01*
X011292Y002549D02*
X011844Y002549D01*
X011844Y002448D02*
X011292Y002448D01*
X011292Y002348D02*
X011844Y002348D01*
X011844Y002247D02*
X011292Y002247D01*
X011292Y002146D02*
X011844Y002146D01*
X011844Y002045D02*
X011292Y002045D01*
X011292Y001944D02*
X011844Y001944D01*
X011844Y001843D02*
X011292Y001843D01*
X011292Y001742D02*
X011844Y001742D01*
X011844Y001641D02*
X011292Y001641D01*
X011292Y001541D02*
X011844Y001541D01*
X011844Y001440D02*
X011292Y001440D01*
X011292Y001339D02*
X011844Y001339D01*
X011844Y001238D02*
X011292Y001238D01*
X011292Y001137D02*
X011844Y001137D01*
X011844Y001036D02*
X011292Y001036D01*
X011410Y003457D02*
X011844Y003457D01*
X011844Y003558D02*
X011511Y003558D01*
X011607Y003659D02*
X011844Y003659D01*
X011844Y003760D02*
X011607Y003760D01*
X011607Y003860D02*
X011844Y003860D01*
X011844Y003961D02*
X011607Y003961D01*
X011607Y004062D02*
X011844Y004062D01*
X011844Y004163D02*
X011607Y004163D01*
X011607Y004264D02*
X011844Y004264D01*
M02*
