%
M48
M72
T01C0.0236
T02C0.0394
T03C0.0500
T04C0.0700
%
T01
X505Y505
X5584Y505
X10938Y505
X12355Y2759
X12355Y4899
X12355Y6962
X8655Y7237
X8655Y4954
X10938Y9599
X5584Y9599
X505Y9599
X16568Y9599
X16568Y505
T02
X11548Y1607
X10548Y1607
X1603Y5224
X1603Y6224
X1603Y7224
T03
X4521Y6224
X14993Y7001
X14993Y2788
T04
X13989Y1785
X15997Y1785
X15997Y3792
X13989Y3792
X13989Y5997
X15997Y5997
X15997Y8005
X13989Y8005
X5525Y7227
X3517Y7227
X3517Y5220
X5525Y5220
M30
